<!-- Generator: Adobe Illustrator 19.1.0, SVG Export Plug-In  -->
<svg version="1.1"
	 xmlns="http://www.w3.org/2000/svg" xmlns:xlink="http://www.w3.org/1999/xlink" xmlns:a="http://ns.adobe.com/AdobeSVGViewerExtensions/3.0/"
	 x="0px" y="0px" width="210px" height="44px" viewBox="0 0 209.3 43.7" style="enable-background:new 0 0 209.3 43.7;"
	 xml:space="preserve">
<style type="text/css">
	.st0{clip-path:url(#SVGID_2_);fill:#FFFFFF;}
	.st1{clip-path:url(#SVGID_4_);fill:#FFFFFF;}
</style>
<defs>
</defs>
<g>
	<defs>
		<rect id="SVGID_1_" x="0" width="209.3" height="43.7"/>
	</defs>
	<clipPath id="SVGID_2_">
		<use xlink:href="#SVGID_1_"  style="overflow:visible;"/>
	</clipPath>
	<path class="st0" d="M190.7,42c-0.3,0.2-0.2,1.1,0,1.3c0.3,0.1,1.1,0.1,1.6,0.1c3.2,0,4.4-0.5,5-1c1-0.8,2.2-2.8,3.2-4.4
		c0.7-1.1,1.1-1.4,1.7-1.4c0,1.6,0,2.4,0,4c0,0.7-0.3,1-1,1.2c-0.3,0.1-0.5,0.1-1,0.2c-0.2,0.2-0.1,1.1,0,1.3c1.3,0,3.1-0.1,4.4-0.1
		c1.3,0,3.2,0.1,4.5,0.1c0.2-0.2,0.2-1.1,0.1-1.3c-0.6-0.1-0.8-0.2-1.2-0.2c-0.9-0.3-1-0.6-1-1.3c-0.1-0.9-0.1-3.2-0.1-5.2
		c0-2.1,0-4.3,0-5.2c0-0.3,0.1-0.6,0.4-0.6c0.4-0.1,1.1-0.2,1.4-0.2c0.2-0.1,0.4-1.3,0.2-1.3c-1.3,0-4.5-0.1-6.5-0.1
		c-3.1,0-4.9,0.2-6.2,0.6c-2.1,0.7-3.1,2.2-3.1,3.9c0,2.3,1.7,3.7,4.1,4.1c0,0,0,0.1,0,0.2c-0.8,0.2-1.4,0.8-2,1.5
		c-0.5,0.6-1.1,1.3-1.7,2.1C192.5,41.6,191.9,42,190.7,42 M198.3,32.1c0-1.7,1.2-2.6,2.8-2.6c0.2,0,0.6,0,0.9,0.1
		c0.1,0,0.2,0.2,0.2,0.5c0,1.4,0,3.7,0,5.3C199.8,35.2,198.3,34.1,198.3,32.1 M171.4,42c-0.1,0.1-0.1,1.2,0,1.3
		c0.8,0,2.6-0.1,4.1-0.1c2.1,0,3.8,0.1,4.4,0.1c0.1-0.1,0.3-1.2,0.2-1.3c-0.4-0.1-0.8-0.2-1.1-0.3c-0.6-0.2-0.7-0.4-0.7-1.7
		c0-0.3,0.1-0.6,0.2-0.7c1-1.4,3.6-4.3,4.6-5.5c0.1-0.2,0.2,0,0.2,0.2c0,2.5,0.1,5.1,0,6.9c0,0.6-0.5,0.8-1.6,1.3
		c-0.1,0.2,0,1,0,1.2c0.8-0.1,2.3-0.1,4-0.1c1.7,0,3.5,0.1,4.5,0.1c0.1-0.1,0.2-1.2,0.2-1.3c-0.6-0.2-0.9-0.2-1.4-0.4
		c-0.6-0.2-0.7-0.6-0.7-1.3c-0.1-2.3-0.1-8-0.1-9.7c0-0.3,0-0.8,0.5-1c0.3-0.1,0.8-0.2,1.4-0.3c0.2-0.1,0.2-1.3,0-1.3
		c-0.8,0-1.8,0.1-4.2,0.1c-2.4,0-3.4-0.1-4.3-0.1c-0.2,0.1-0.2,1.2-0.1,1.3c0.5,0.1,0.8,0.2,1,0.3c0.5,0.2,0.7,0.5,0.7,1.3
		c0,0.2-0.1,0.5-0.2,0.7c-1,1.4-3.5,4.3-4.5,5.4c0,0.1-0.2,0.1-0.2-0.1c0-2.2,0-5,0.1-6.3c0-0.8,0.3-1.1,0.9-1.2
		c0.5-0.1,0.6-0.2,0.9-0.2c0.2-0.1,0.2-1.2,0-1.3c-0.3,0-1.6,0.1-4.3,0.1c-2.3,0-3.7-0.1-4.2-0.1c-0.2,0.1-0.2,1.1-0.1,1.3
		c0.4,0.1,0.7,0.2,1.1,0.3c0.6,0.2,0.8,0.5,0.8,1.1c0,1.3,0.1,2.7,0.1,4.1c0,1.7,0,3.4,0,5.1c0,1.2,0,1.8-1,2.1
		C172.1,41.9,171.8,42,171.4,42 M151,42c-0.1,0.1-0.1,1.2,0,1.3c0.5,0,2.5-0.1,4-0.1c1.8,0,4.3,0.1,4.7,0.1c0.2-0.2,0.2-1.2,0.2-1.3
		c-0.5-0.1-0.8-0.2-1.1-0.3c-0.5-0.2-0.8-0.4-0.8-1.3v-4c0-0.1,0.1-0.2,0.2-0.2h2.3h2.3c0.1,0,0.1,0.1,0.1,0.1c0,1.3,0,3.2,0,4.3
		c0,0.5-0.2,1-0.6,1.1c-0.3,0.1-0.6,0.2-1.2,0.3c-0.1,0.1,0,1.2,0.1,1.3c0.3,0,2.3-0.1,4.2-0.1c2.4,0,3.4,0.1,4.5,0.1
		c0.2-0.2,0.3-1.2,0.2-1.3c-0.3-0.1-0.6-0.2-1-0.3c-0.6-0.2-1.1-0.5-1.1-1.4c0-0.9,0-3-0.1-5c0-2.4,0-3.7,0-4.7c0-0.8,0.2-1,0.9-1.2
		c0.2-0.1,0.8-0.2,1.1-0.3c0.1-0.2,0.1-1.1,0-1.3c-1.4,0-2.9,0.1-4.4,0.1c-1.1,0-3.7-0.1-4.3-0.1c-0.1,0.1-0.2,1.1-0.1,1.3
		c0.3,0,0.8,0.1,1,0.2c0.7,0.2,0.8,0.5,0.8,1.1c0,0.5,0.1,2.6,0,3.7c0,0.1-0.2,0.2-0.2,0.2c-0.4,0-1.3,0-2.2,0c-0.7,0-1.5,0-2.2,0
		c-0.1,0-0.2-0.1-0.2-0.2c0-0.8,0-2.5,0-3.8c0-0.6,0.3-1,0.8-1.1c0.5-0.1,0.5-0.2,0.9-0.2c0.1-0.1,0.1-1.2,0-1.3
		c-0.3,0-1.5,0.1-4.2,0.1c-2.3,0-3.7-0.1-4.2-0.1c-0.2,0.1-0.2,1.1-0.1,1.3c0.4,0.1,0.7,0.2,1.1,0.3c0.6,0.2,0.8,0.5,0.8,1.1
		c0.1,1.5,0,3.3,0,4.9c0,1.7,0,3.8-0.1,4.9c-0.1,1-0.2,1.3-1,1.5C151.7,41.9,151.4,42,151,42 M143,35.8c0,0.6,0,3-0.1,4.1
		c0,0.4-0.1,0.6-0.2,0.7c-0.2,0.2-0.5,0.2-0.8,0.2c-1.1,0-2.5-0.8-2.5-2.8c0-0.3,0.2-1.1,0.3-1.3c0.4-0.3,2.2-0.9,3.2-1.2
		C142.9,35.6,143,35.7,143,35.8 M143,33.4c0,0.2,0,0.3,0,0.5c0,0.2-0.2,0.4-0.3,0.4c-1.4,0.6-6.1,1.7-7.2,2.4
		c-0.3,0.4-0.6,1.8-0.6,2.3c0,1.5,0.5,2.9,1.5,3.8c0.6,0.6,1.4,0.9,2.3,0.9c0.6,0,2.4-0.6,4.2-1.8c0,0,0.2,0,0.2,0
		c0,0.2,0.1,0.5,0.2,0.6c0.2,0.7,1,1.2,2.3,1.2c1.3,0,3.2-0.6,4.1-1.5c0.1-0.2,0.3-1.4,0.2-1.5c-0.5,0.2-0.8,0.2-1.3,0.2
		c-0.8,0-1-0.8-1-1.4c0-1.6,0.1-4,0.1-5.8c0-1.3-0.2-2.7-0.9-3.8c-0.9-1.3-2.5-2.3-4.5-2.3c-1.2,0-4,1-6,2.4
		c-0.3,0.2-0.8,2.2-0.8,2.5c0,0.2,1.2,0.8,1.4,0.6c0.2-0.4,0.9-1.9,1.3-2.2c0.3-0.3,1-0.5,1.9-0.5c1,0,2,0.3,2.6,1.2
		C142.9,32.1,143,32.7,143,33.4 M114.1,42c-0.1,0.1-0.1,1.2,0,1.3c0.5,0,2.5-0.1,4-0.1c1.8,0,4.3,0.1,4.7,0.1
		c0.2-0.2,0.2-1.2,0.2-1.3c-0.5-0.1-0.8-0.2-1.1-0.3c-0.5-0.2-0.8-0.4-0.8-1.3v-4c0-0.1,0.1-0.2,0.2-0.2h2.3h2.3
		c0.1,0,0.1,0.1,0.1,0.1c0,1.3,0,3.2,0,4.3c0,0.5-0.2,1-0.6,1.1c-0.3,0.1-0.6,0.2-1.2,0.3c-0.1,0.1,0,1.2,0.1,1.3
		c0.3,0,2.3-0.1,4.2-0.1c2.4,0,3.4,0.1,4.5,0.1c0.2-0.2,0.3-1.2,0.2-1.3c-0.3-0.1-0.6-0.2-1-0.3c-0.6-0.2-1.1-0.5-1.1-1.4
		c0-0.9,0-3-0.1-5c0-2.4,0-3.7,0-4.7c0-0.8,0.2-1,0.9-1.2c0.2-0.1,0.8-0.2,1.1-0.3c0.1-0.2,0.1-1.1,0-1.3c-1.4,0-2.9,0.1-4.4,0.1
		c-1.1,0-3.7-0.1-4.3-0.1c-0.1,0.1-0.2,1.1-0.1,1.3c0.3,0,0.8,0.1,1,0.2c0.7,0.2,0.8,0.5,0.8,1.1c0,0.5,0.1,2.6,0,3.7
		c0,0.1-0.2,0.2-0.2,0.2c-0.4,0-1.3,0-2.2,0c-0.7,0-1.5,0-2.2,0c-0.1,0-0.2-0.1-0.2-0.2c0-0.8,0-2.5,0-3.8c0-0.6,0.3-1,0.8-1.1
		c0.5-0.1,0.5-0.2,0.9-0.2c0.1-0.1,0.1-1.2,0-1.3c-0.3,0-1.5,0.1-4.2,0.1c-2.3,0-3.7-0.1-4.2-0.1c-0.2,0.1-0.2,1.1-0.1,1.3
		c0.4,0.1,0.7,0.2,1.1,0.3c0.6,0.2,0.8,0.5,0.8,1.1c0.1,1.5,0,3.3,0,4.9c0,1.7,0,3.8-0.1,4.9c-0.1,1-0.2,1.3-1,1.5
		C114.8,41.9,114.5,42,114.1,42 M100.1,38.2c-0.2,0-1.1,0.3-1.3,0.5c0.1,1.1,0.6,3.5,1,4.1c0.9,0.5,2.7,0.9,4.5,0.9
		c3.3,0,7.9-1.2,7.9-5.1c0-2.1-1.8-3.3-4.1-3.8c0,0,0-0.1,0-0.2c1.6-0.5,3.2-1.5,3.2-3.4c0-2.5-2.5-3.8-5.8-3.8
		c-2.1,0-4.3,0.6-5.7,1c-0.1,0.8-0.4,3.2-0.5,3.8c0.2,0.2,1,0.4,1.3,0.3c0.8-2.2,1.8-3.6,3.3-3.6c1.2,0,2.4,0.8,2.4,3.1
		c0,1.7-1,2.3-2.3,2.3c-0.4,0-1.1,0-1.4-0.1c-0.1,0.4-0.3,1.5-0.4,1.9c0.5,0,0.9,0,1.4,0c1.7,0,3.1,1.1,3.1,3c0,2.2-1.2,2.9-2.3,2.9
		C103,42.1,101.6,41.4,100.1,38.2 M87.9,29c2.4,0,3.6,3,3.6,7.5c0,2.9-0.4,4.5-1.3,5.3c-0.3,0.3-0.7,0.4-1.2,0.4
		c-2.1,0-3.6-2.6-3.6-7.8c0-2.9,0.5-4.3,1.5-5C87.2,29.2,87.6,29,87.9,29 M88.8,27.5c-2.1,0-4.1,0.7-5.4,1.5
		c-2.1,1.3-3.4,3.6-3.4,6.5c0,4.5,2.6,8.2,8.4,8.2c1.8,0,4-0.7,5.2-1.4c2.1-1.3,3.5-3.6,3.5-6.8C97,31,94.1,27.5,88.8,27.5
		 M63.6,30.5c0,0.5,0,2.7,0,4.8c0,2.1,0,5.1,0,5.5c0,0.6-0.3,0.9-0.9,1c-0.5,0.1-0.8,0.2-1.1,0.3c-0.2,0.1-0.1,1.2,0,1.3
		c0.3,0,2.7-0.1,4.1-0.1c0.6,0,4.1,0.1,4.6,0.1c0.2-0.1,0.2-1.1,0.1-1.3c-0.5-0.1-0.7-0.2-1-0.2c-0.6-0.2-0.8-0.5-0.8-1.1
		c-0.1-1.1-0.1-3.4-0.1-4.8c0.5,0,1,0.4,1.5,1.5c0.9,1.8,1.6,3.1,2.5,4.6c0.8,1.1,1.5,1.5,2.9,1.5c2.5,0,3.9-0.1,4.4-0.2
		c0.2-0.1,0.2-1.1,0.1-1.2c-1.4-0.2-1.9-0.4-2.8-1.7c-1.1-1.5-1.8-2.9-2.7-4.3c-0.4-0.6-1.2-1.3-2-1.6c0.3-0.2,0.6-1,1.1-1.9
		c0.6-1.3,1-1.3,1.5-1.3c0.4,0,1.2,0.2,1.7,0.5c0.1,0,0.3,0,0.4-0.1c0.3-0.4,0.9-2.7,0.9-3.5c-0.2-0.4-0.9-0.7-1.6-0.7
		c-1,0-2.2,0.2-3.8,3.5c-0.5,1.1-1,2.2-1.5,2.8c-0.4,0.6-1.2,0.9-2.8,1v-4.3 M51.1,29.2c0.4,0,0.8,0.1,1.1,0.2
		c0.7,0.2,0.8,0.5,0.8,1.1c0,0.7,0.1,3.8,0,4.9c0,2.7,0,4.5-0.1,5.3c0,0.5-0.2,1-0.6,1.1c-0.3,0.1-0.6,0.2-1.1,0.3
		c-0.1,0.1,0,1.2,0.1,1.3c0.3,0,2.4-0.1,4.2-0.1c2.4,0,3.4,0.1,4.5,0.1c0.2-0.2,0.3-1.2,0.2-1.3c-0.3-0.1-0.6-0.2-1.1-0.3
		c-0.6-0.2-1.1-0.5-1.1-1.4c0-0.9,0-3,0-5c0-2.4,0-3.7,0-4.7c0-0.8,0.2-1,0.8-1.2c0.3-0.1,0.8-0.2,1.1-0.3c0.1-0.2,0.1-1.1,0-1.3
		c-1.4,0-2.8,0.1-4.4,0.1c-1.1,0-3.8-0.1-4.4-0.1C51,28,51,29.1,51.1,29.2 M35.2,42.1c-0.1,0.2-0.1,1.1,0,1.3c2.4,0,5.2,0,7.3,0
		c2.5,0,4.1-0.3,5.3-1c1.7-0.9,2.7-2.5,2.7-4.6c0-3.3-2.7-4.7-5.4-4.7c-0.6,0-2.1,0-2.9,0.1l0-2.8c0-0.6,0.4-1,0.9-1.1
		c0.5-0.1,0.6-0.2,1-0.2c0.2-0.1,0.2-1.2,0-1.3c-0.3,0-1.6,0.1-4.3,0.1c-2.3,0-3.7-0.1-4.2-0.1c-0.2,0.1-0.2,1.1-0.1,1.3
		c0.4,0.1,0.7,0.2,1.1,0.3c0.6,0.2,0.8,0.5,0.8,1.1c0,0.9,0,3.2,0,4.8c0,1.9,0,3.3,0,4.9c0,0.8-0.2,1.3-1,1.6
		C36.1,41.9,35.8,42,35.2,42.1 M42.3,34.6c2.6,0,3.5,1.7,3.5,4c0,2.4-1.1,3.5-2,3.5c-0.4,0-1.4-0.6-1.4-1.1
		C42.3,39.3,42.3,36.3,42.3,34.6 M21.5,38.2c-0.2,0-1.1,0.3-1.3,0.5c0.1,1.1,0.6,3.5,1,4.1c0.9,0.5,2.7,0.9,4.5,0.9
		c3.3,0,7.9-1.2,7.9-5.1c0-2.1-1.8-3.3-4.1-3.8c0,0,0-0.1,0-0.2c1.6-0.5,3.2-1.5,3.2-3.4c0-2.5-2.5-3.8-5.8-3.8
		c-2.1,0-4.3,0.6-5.7,1c-0.1,0.8-0.4,3.2-0.5,3.8c0.2,0.2,1,0.4,1.3,0.3c0.8-2.2,1.8-3.6,3.3-3.6c1.2,0,2.4,0.8,2.4,3.1
		c0,1.7-1,2.3-2.3,2.3c-0.4,0-1.1,0-1.4-0.1c-0.1,0.4-0.3,1.5-0.4,1.9c0.5,0,0.9,0,1.4,0c1.7,0,3.1,1.1,3.1,3c0,2.2-1.2,2.9-2.3,2.9
		C24.4,42.1,22.9,41.4,21.5,38.2 M0.2,42c-0.3,0.2-0.2,1.1,0,1.3c0.3,0.1,1.1,0.1,1.6,0.1c3.2,0,4.4-0.5,5-1c1-0.8,2.2-2.8,3.2-4.4
		c0.7-1.1,1.1-1.4,1.7-1.4c0,1.6,0,2.4,0,4c0,0.7-0.3,1-1,1.2c-0.3,0.1-0.5,0.1-1,0.2c-0.2,0.2-0.1,1.1,0,1.3c1.3,0,3.1-0.1,4.4-0.1
		c1.3,0,3.2,0.1,4.5,0.1c0.2-0.2,0.2-1.1,0.1-1.3c-0.6-0.1-0.8-0.2-1.2-0.2c-0.9-0.3-1-0.6-1-1.3c-0.1-0.9-0.1-3.2-0.1-5.2
		c0-2.1,0-4.3,0-5.2c0-0.3,0.1-0.6,0.4-0.6c0.4-0.1,1.1-0.2,1.4-0.2c0.2-0.1,0.4-1.3,0.2-1.3c-1.3,0-4.5-0.1-6.5-0.1
		c-3.1,0-4.9,0.2-6.2,0.6c-2.1,0.7-3.1,2.2-3.1,3.9c0,2.3,1.7,3.7,4.1,4.1c0,0,0,0.1,0,0.2c-0.8,0.2-1.4,0.8-2,1.5
		c-0.5,0.6-1.1,1.3-1.7,2.1C2,41.6,1.3,42,0.2,42 M7.8,32.1c0-1.7,1.2-2.6,2.8-2.6c0.2,0,0.6,0,0.9,0.1c0.1,0,0.2,0.2,0.2,0.5
		c0,1.4,0,3.7,0,5.3C9.2,35.2,7.8,34.1,7.8,32.1"/>
	<path class="st0" d="M68.5,32.4c-0.1-1,0.1-7.7,0.1-8.7c0-0.1,0-0.2,0.1-0.2c0.2,0,0.6,0,0.8,0c2,0,5-0.8,7-2.5
		c1.9-1.6,3.1-3.6,3.1-6.8c0-1.8-0.6-3.7-1.8-5.1c-0.9-1.1-2.3-1.7-4-1.7c-1.5,0-3.4,1.1-5,2.1c-0.1,0-0.2,0-0.2-0.1
		c0-0.7,0-1.7,0-2.1c0-0.1-0.3-0.4-0.3-0.3c-1.6,0.8-5,1.9-6.8,2.1c-0.1,0.2-0.2,1-0.1,1.3c0.5,0.1,1.1,0.3,1.6,0.5
		c0.5,0.3,0.6,0.6,0.6,1.3c0.1,1.7,0.1,3.9,0.1,7.9c0,3.5,0,11.3-0.1,12.6 M130.2,9c0.4,0,0.8,0.1,1.1,0.2c0.7,0.2,0.8,0.5,0.8,1.1
		c0,0.7,0.1,3.8,0,4.9c0,2.7,0,4.5-0.1,5.3c0,0.5-0.2,0.9-0.6,1.1c-0.3,0.1-0.6,0.2-1.1,0.3c-0.1,0.1,0,1.2,0.1,1.3
		c0.3,0,2.4-0.1,4.2-0.1c2.4,0,3.4,0.1,4.5,0.1c0.2-0.2,0.3-1.2,0.2-1.3c-0.3-0.1-0.6-0.2-1.1-0.3c-0.6-0.2-1.1-0.5-1.1-1.4
		c0-0.9,0-3,0-5c0-2.4,0-3.7,0-4.7c0-0.8,0.2-1,0.8-1.2c0.3-0.1,0.8-0.2,1.1-0.3c0.1-0.2,0.1-1.1,0-1.3c-1.4,0-2.8,0.1-4.4,0.1
		c-1.1,0-3.8-0.1-4.4-0.1C130.2,7.8,130.1,8.9,130.2,9 M114.4,21.9c-0.1,0.2-0.1,1.1,0,1.3c2.4,0,5.2,0,7.3,0c2.5,0,4.1-0.3,5.3-1
		c1.7-0.9,2.7-2.5,2.7-4.6c0-3.3-2.7-4.7-5.4-4.7c-0.6,0-2.1,0-2.9,0.1l0-2.8c0-0.6,0.4-1,0.9-1.1c0.5-0.1,0.6-0.2,0.9-0.2
		c0.2-0.1,0.2-1.2,0-1.3c-0.3,0-1.6,0.1-4.3,0.1c-2.3,0-3.7-0.1-4.2-0.1c-0.2,0.1-0.2,1.1-0.1,1.3c0.4,0.1,0.7,0.2,1.1,0.3
		c0.6,0.2,0.8,0.5,0.8,1.1c0,0.9,0,3.2,0,4.8c0,1.9,0,3.3,0,4.9c0,0.8-0.2,1.3-0.9,1.6C115.2,21.7,114.9,21.8,114.4,21.9
		 M121.4,14.4c2.6,0,3.5,1.7,3.5,4c0,2.4-1.1,3.5-2,3.5c-0.4,0-1.4-0.6-1.4-1.1C121.4,19.1,121.4,16.1,121.4,14.4 M114,20.2
		c0.2-0.3,0.3-1.1,0.3-1.4c0-0.2-0.2-0.2-0.2-0.3c-1.4,1.1-2.7,1.5-4.1,1.5c-1.4,0-2.9-0.4-4.1-2c-0.8-1.3-1.2-2.8-1.2-4.3
		c0-2.9,1.2-4.7,2.8-4.7c1.8,0,3.3,2.1,4.1,2.9c0.1,0.1,0.5,0.1,0.6,0c0.5-0.2,1.5-1.5,1.8-2.3c0.1-0.2,0.1-0.6,0-0.8
		c-0.3-0.6-1.1-1-1.3-1.1c-0.8-0.3-1.7-0.5-3.3-0.5c-1.9,0-4.3,0.8-5.7,1.6c-2.4,1.4-3.8,4.1-3.8,6.6c0,2,0.5,3.9,1.6,5.3
		c1.4,1.7,3.2,2.6,5.7,2.6C109.4,23.5,112.1,22.6,114,20.2 M89.1,8.8c2.4,0,3.6,3,3.6,7.5c0,2.9-0.4,4.5-1.3,5.3
		c-0.3,0.3-0.7,0.4-1.2,0.4c-2.1,0-3.6-2.6-3.6-7.8c0-2.9,0.5-4.3,1.5-5C88.4,9,88.8,8.8,89.1,8.8 M90,7.3c-2.1,0-4.1,0.7-5.4,1.5
		c-2.1,1.3-3.4,3.6-3.4,6.5c0,4.5,2.6,8.2,8.4,8.2c1.8,0,4-0.7,5.2-1.4c2.1-1.3,3.5-3.6,3.5-6.8C98.3,10.8,95.3,7.3,90,7.3
		 M70.5,10.3c1.1,0,2.1,0.4,2.8,1.4c0.8,1,1.2,2.6,1.2,4.7c0,1.9-0.4,3.5-1.1,4.3c-0.5,0.6-1.3,0.9-1.8,0.9c-0.6,0-1.3-0.1-2.1-0.7
		c-0.7-0.6-1-1.4-1-2.1c-0.1-1.6-0.1-6.3-0.1-7.4c0-0.3,0.2-0.5,0.4-0.6C69.3,10.5,70.1,10.3,70.5,10.3 M42.6,21.9
		c-0.1,0.1-0.1,1.2,0,1.3c0.5,0,2-0.1,4-0.1c1.8,0,4.2,0.1,4.7,0.1c0.2-0.2,0.2-1.2,0.2-1.3c-0.5-0.1-0.8-0.2-1.1-0.3
		c-0.5-0.2-0.8-0.4-0.8-1.3c0-0.8,0-4.5,0-5.2c0-0.6,0-4.1,0-4.8c0-0.5,0.2-0.6,0.3-0.6c0.6,0,3,0,4.1,0c0.2,0,0.3,0.1,0.3,0.3
		c0,1,0.1,4.7,0.1,5.4c0,0.9,0,4.5,0,5.1c0,0.6-0.1,0.9-0.7,1.2c-0.3,0.1-0.6,0.2-1,0.3c-0.1,0.1,0,1.2,0.1,1.3c0.3,0,2.7-0.1,4-0.1
		c1.8,0,3.5,0.1,4.6,0.1c0.2-0.2,0.3-1.2,0.2-1.3c-0.5-0.1-0.8-0.2-1.2-0.3c-0.6-0.2-1-0.5-1-1.4c0-0.9,0-3.1-0.1-5.1v-4.6
		c0-0.7,0.2-1,1.1-1.2C60.5,9.2,61,9.1,61.3,9c0.1-0.2,0.1-1.1,0-1.3c-1.4,0-2.8,0.1-4.4,0.1l-9.8,0c-2.3,0-3.7-0.1-4.2-0.1
		c-0.2,0.1-0.2,1-0.1,1.3c0.4,0.1,0.7,0.1,1.1,0.2c0.6,0.2,0.8,0.5,0.8,1.1c0,1.4,0,3.3,0,4.8c0,1.7,0,3.5,0,5.1c0,1,0,1.2-0.9,1.4
		C43.4,21.7,43.2,21.7,42.6,21.9 M32.5,8.8c2.4,0,3.6,3,3.6,7.5c0,2.9-0.4,4.5-1.3,5.3c-0.3,0.3-0.7,0.4-1.2,0.4
		c-2.1,0-3.6-2.6-3.6-7.8c0-2.9,0.5-4.3,1.5-5C31.8,9,32.1,8.8,32.5,8.8 M33.4,7.3c-2.1,0-4.1,0.7-5.4,1.5c-2.1,1.3-3.4,3.6-3.4,6.5
		c0,4.5,2.6,8.2,8.4,8.2c1.8,0,4-0.7,5.2-1.4c2.1-1.3,3.5-3.6,3.5-6.8C41.6,10.8,38.7,7.3,33.4,7.3 M13,21.9c-0.4,0-1.8-0.2-2.5-1
		c-0.2-0.3-0.5-0.8-0.5-1.2c-0.1-1.7-0.1-5.2-0.1-7.9c0-0.2,0.1-0.2,0.2-0.2c0.3,0,0.8,0,1.2,0c3.6,0,5.6,2,5.6,5.2
		C16.9,20,15.3,21.9,13,21.9 M11.1,1.6c3.3,0,4.8,2,4.8,4.8c0,1.5-0.5,2.5-1.4,3.1c-0.4,0.2-1.4,0.3-2.5,0.3c-0.8,0-1.4,0-1.8,0
		c-0.1,0-0.2-0.1-0.2-0.2c0-2.5,0-6.3,0.1-7.4c0-0.2,0.2-0.5,0.3-0.5C10.5,1.7,10.8,1.6,11.1,1.6 M1.5,1.3c0.6,0,1.4,0.2,2,0.4
		c0.7,0.2,1,0.6,1,1.6c0.1,2.1,0.1,4.3,0.1,8.2c0,4.3,0,7.2-0.1,8.2c-0.1,1.1-0.4,1.5-0.9,1.7c-0.6,0.2-1.3,0.3-2.4,0.5
		c-0.2,0.1-0.2,1.1,0,1.3c2.6,0,8.9,0.2,10.6,0.2c2.2,0,4.8-0.3,6.5-1.1c3-1.4,4.6-3.4,4.6-6.4c0-3.3-2.4-5-5.9-5.7
		c-0.1,0-0.1-0.2,0-0.2C19.6,9.2,21,7.3,21,5.2C21,0.9,17.2,0,13.6,0c-1,0-3.7,0.1-6.7,0.1C4,0.1,2.4,0,1.5,0
		C1.4,0.1,1.3,1.1,1.5,1.3"/>
</g>
</svg>
